<svg width="27" height="27" viewBox="0 0 27 27" fill="none" xmlns="http://www.w3.org/2000/svg">
<path d="M0 16.5482V20.119C0 21.5996 1.17576 22.6447 2.61279 22.6447H24.3861C25.8231 22.6447 26.9989 21.5996 26.9989 20.119V16.5482H0Z" fill="#2E2F30"/>
<path d="M24.3861 4.3552H2.61279C1.17576 4.3552 0 5.40031 0 6.8809V10.4517H26.9989V6.8809C26.9989 5.40031 25.8231 4.3552 24.3861 4.3552Z" fill="#CC3434"/>
<path d="M0 10.4517H26.9989V16.5482H0V10.4517Z" fill="#F5FEFF"/>
<path d="M24.299 22.6447C25.736 22.6447 26.9989 21.5996 26.9989 20.119V16.5482H17.1573L24.299 22.6447Z" fill="black"/>
<path d="M24.3861 4.3552H2.61279L9.84152 10.4517H26.9989V6.8809C26.9989 5.40031 25.8231 4.3552 24.3861 4.3552Z" fill="#BA2B2B"/>
<path d="M17.2009 16.5482H26.9989V10.4517H9.79797L17.2009 16.5482Z" fill="#D9E2E1"/>
<path d="M24.3861 4.3552H2.61279L22.7748 10.4517H26.9989V6.8809C26.9989 5.40031 25.8231 4.3552 24.3861 4.3552Z" fill="#A32323"/>
<path d="M26.9989 11.671V10.4517H22.5571L26.9989 11.671Z" fill="#C9D3D1"/>
<path d="M26.9989 20.0755C27.0424 21.6432 25.8231 22.6447 24.3861 22.6447H2.61279C1.17576 22.6447 0 21.5125 0 20.032" fill="black"/>
<path d="M15.6767 15.6338C15.6332 15.0241 15.6332 14.4145 15.5896 13.8048C15.5896 13.5435 15.5896 13.2822 15.5461 13.021C15.5026 12.5855 15.5461 12.15 15.459 11.7581C15.3719 11.671 15.2413 11.5839 15.1106 11.6275C14.7623 11.671 14.4574 12.0194 14.1091 11.9758C14.022 11.8452 13.9349 11.671 13.8913 11.4097V11.0614C13.8913 10.8436 13.8478 10.6694 13.7171 10.5824C13.63 10.5388 13.4559 10.4953 13.3252 10.4953C13.2817 10.4953 13.2381 10.5388 13.1946 10.5824C13.0204 10.4953 12.7591 10.4517 12.8027 10.713C12.9769 10.6259 13.151 10.8436 13.151 11.0178C13.1946 11.3662 13.0639 11.8017 12.8898 11.9323C12.4978 11.9323 12.2366 11.6275 11.8882 11.5839C11.5834 11.5404 11.4963 11.7581 11.4963 12.0629C11.4963 12.3242 11.4963 12.629 11.4527 12.8903C11.4527 13.1516 11.4527 13.4129 11.4092 13.6742V14.1096C11.3656 14.3709 11.4092 14.7193 11.3656 14.9806C11.3656 15.1983 11.3656 15.416 11.3221 15.5902C11.4527 15.5467 11.6705 15.5902 11.8446 15.5902C11.8446 15.6338 11.8882 15.6338 11.8882 15.7208C11.7575 15.7644 11.7575 15.8515 11.6269 15.895C11.714 15.9386 11.714 16.1128 11.8011 16.1563C11.8011 16.2434 11.8011 16.287 11.8446 16.287C11.9317 16.3305 12.193 16.374 12.3237 16.4176C13.1075 16.5047 14.2832 16.5047 15.0235 16.374C15.1977 16.3305 15.2848 16.3305 15.2848 16.1563C15.3719 16.1128 15.3719 15.9821 15.459 15.895C15.3719 15.8515 15.3284 15.8079 15.2848 15.7644C15.2413 15.7208 15.2413 15.7644 15.1977 15.7208C15.1977 15.6773 15.1977 15.6338 15.2413 15.6338C15.3284 15.6338 15.5461 15.5902 15.6767 15.6338ZM12.0188 15.5467C11.9753 15.5902 11.9317 15.5902 11.8882 15.6338C11.8446 15.5467 11.9317 15.4596 12.0188 15.4596V15.5467ZM14.2397 15.7208C14.0655 15.7208 13.8913 15.7644 13.7171 15.7208C13.6736 15.6773 13.6736 15.5902 13.7171 15.5467H14.2397C14.4574 15.5031 14.7187 15.4596 14.8929 15.416C14.9364 15.416 14.9364 15.5031 14.9364 15.5467C14.8058 15.6338 14.5881 15.6338 14.4139 15.6773C14.4139 15.5031 14.2397 15.5467 14.2397 15.7208ZM14.4139 15.7208L14.3268 15.8079C14.2832 15.7644 14.2397 15.7644 14.2397 15.7644C14.2397 15.5902 14.4139 15.5467 14.4139 15.7208ZM13.1946 14.1967C13.2381 14.2403 13.2817 14.2838 13.3252 14.2838C13.3252 14.3709 13.2817 14.458 13.2817 14.5451C13.2381 14.458 13.0639 14.2838 13.1946 14.1967ZM12.9769 14.4145C12.9333 14.2403 12.9333 14.0661 12.9333 13.8919L13.1946 14.1532C13.151 14.2403 13.0639 14.3274 12.9769 14.4145ZM13.3252 15.416C13.3688 15.1983 13.3688 14.937 13.4123 14.7193C13.4559 14.8935 13.3688 15.1983 13.3688 15.3725C13.3688 15.4596 13.4559 15.4596 13.4559 15.5467L13.5865 15.416C13.5865 15.1983 13.543 14.937 13.543 14.7193C13.5865 14.937 13.63 15.1547 13.63 15.3725C13.6736 15.416 13.7171 15.416 13.7171 15.4596C13.7607 15.4596 13.7607 15.416 13.8042 15.416C13.8478 15.4596 13.8042 15.5031 13.8478 15.5467H13.6736C13.63 15.5467 13.63 15.5902 13.5865 15.5902H13.3252C13.2817 15.5031 13.151 15.5467 13.0639 15.5467C13.0639 15.5031 13.0639 15.4596 13.1075 15.4596C13.1075 15.416 13.151 15.5031 13.1946 15.5031C13.2381 15.4596 13.2817 15.4596 13.3252 15.416ZM14.022 14.4145C13.9349 14.3709 13.8913 14.2403 13.8042 14.1532L14.0655 13.8919C14.0655 14.0661 14.022 14.2403 14.022 14.4145ZM14.1962 13.6306C14.2397 13.8483 14.4139 14.0661 14.2832 14.2838C14.1962 14.2403 14.1526 14.1096 14.0655 14.0661C14.0655 13.8919 14.1091 13.7613 14.1962 13.6306ZM13.8478 14.2838C13.8042 14.3709 13.7607 14.5015 13.7171 14.5886C13.6736 14.5015 13.6736 14.4145 13.63 14.3274C13.6736 14.2838 13.7171 14.2838 13.7607 14.1967C13.8042 14.1967 13.8478 14.2403 13.8478 14.2838ZM13.4123 15.8515C13.3688 15.8515 13.3252 15.8079 13.2817 15.7644C13.2817 15.7208 13.3252 15.7208 13.3252 15.6338C13.4123 15.6338 13.4559 15.7644 13.4123 15.8515ZM13.4123 15.6338H13.5865C13.543 15.6773 13.543 15.7644 13.4559 15.7208C13.4559 15.6773 13.4123 15.6773 13.4123 15.6338ZM13.63 15.6338C13.6736 15.6338 13.6736 15.7208 13.7171 15.7644C13.7171 15.8079 13.63 15.8079 13.63 15.8515C13.543 15.8079 13.5865 15.6773 13.63 15.6338ZM14.1526 15.416C14.1962 15.416 14.2397 15.5031 14.2397 15.5467H14.1091C14.1091 15.5031 14.1526 15.4596 14.1526 15.416ZM14.3703 15.5031C14.3703 15.416 14.4139 15.3725 14.4574 15.3289C14.501 15.3725 14.5445 15.416 14.5445 15.4596C14.501 15.4596 14.4139 15.5031 14.3703 15.5031ZM14.5881 15.4596C14.5445 15.416 14.501 15.3289 14.4139 15.2418C14.3703 15.3289 14.3268 15.416 14.3268 15.5031H14.2832C14.2397 15.4596 14.1962 15.3725 14.1962 15.3289C14.1526 15.3725 14.1526 15.4596 14.1091 15.5467H13.9784C13.8913 15.416 13.9349 15.2418 13.9784 15.0676C14.0655 15.1112 14.1091 15.1983 14.1526 15.2854C14.1962 15.1983 14.1962 15.1112 14.2397 15.0241C14.3268 15.0677 14.3703 15.1547 14.4139 15.2418C14.4574 15.1547 14.501 15.0241 14.5445 14.937H14.5881L14.7187 15.4596H14.5881ZM14.4139 15.1547C14.3268 15.1112 14.3268 15.0241 14.2397 14.937C14.1962 15.0241 14.1962 15.1112 14.1526 15.1983C14.0655 15.1547 14.022 15.0241 13.9349 14.9806C13.8913 15.0676 13.8913 15.1547 13.8913 15.2418C13.8478 15.1112 13.8042 14.937 13.7607 14.7628C13.8042 14.7628 13.8913 14.8935 13.9349 14.937C13.9784 14.8064 13.9784 14.6757 14.022 14.5886C14.1091 14.6322 14.1091 14.7193 14.1526 14.7628L14.2832 14.5015C14.3703 14.5451 14.4139 14.6322 14.501 14.6757C14.5881 14.8935 14.4574 15.0241 14.4139 15.1547ZM14.2832 14.5015C14.2397 14.5886 14.2397 14.6322 14.1962 14.7193C14.1091 14.6757 14.1091 14.5886 14.0655 14.5451C14.022 14.6322 13.9784 14.8064 13.9784 14.937C13.8913 14.8499 13.7607 14.8064 13.7607 14.6757C13.7607 14.6322 13.8042 14.5451 13.8042 14.5015C13.8478 14.458 13.8478 14.4145 13.8913 14.3274C13.9349 14.3709 13.9784 14.458 14.0655 14.5015C14.0655 14.3709 14.0655 14.2403 14.1091 14.1096C14.1962 14.1532 14.2397 14.2403 14.3268 14.3274C14.3703 14.2838 14.3703 14.2403 14.3703 14.1967C14.4574 14.3274 14.501 14.5451 14.501 14.6757C14.4139 14.6322 14.3703 14.5451 14.2832 14.5015ZM14.3703 13.8483C14.3703 13.5871 14.3268 13.3258 14.3703 13.1081H14.4139C14.4139 13.5435 14.4574 13.979 14.4574 14.4145C14.3703 14.2403 14.3703 14.0225 14.3703 13.8483ZM13.4994 14.3709C12.9333 14.0225 12.5849 13.4129 12.5849 12.4984C12.9769 12.4984 13.2817 12.4113 13.4994 12.2371L13.7607 12.3678C13.9349 12.4549 14.1526 12.4984 14.4139 12.4984C14.4139 13.4129 14.0655 14.0225 13.4994 14.3709ZM12.9333 14.0661C12.8898 14.1532 12.8027 14.2403 12.7156 14.2838C12.5414 14.1096 12.7591 13.8483 12.7591 13.6306C12.8898 13.7177 12.9333 13.8919 12.9333 14.0661ZM12.5849 13.1081C12.672 13.1951 12.6285 13.4129 12.6285 13.5871C12.6285 13.8919 12.6285 14.1532 12.5414 14.3709C12.5414 13.979 12.5849 13.5 12.5849 13.1081ZM12.672 14.1967C12.672 14.2403 12.7156 14.2838 12.7156 14.3274L12.9333 14.1096C12.9769 14.1967 12.9769 14.3709 12.9769 14.5015C13.0204 14.458 13.0639 14.3709 13.151 14.3274C13.1946 14.458 13.2381 14.5451 13.2817 14.6757C13.2381 14.8064 13.151 14.8499 13.0639 14.937L12.9333 14.5451C12.8462 14.5886 12.8898 14.7193 12.8027 14.7193C12.7591 14.6322 12.7591 14.5886 12.7156 14.5015C12.6285 14.5451 12.5849 14.6322 12.4978 14.6757C12.4978 14.6322 12.5414 14.5886 12.5414 14.5451C12.5849 14.4145 12.5849 14.2838 12.672 14.1967ZM12.672 14.5451C12.7156 14.5886 12.7591 14.7193 12.8027 14.8064C12.8462 14.7628 12.8462 14.6757 12.9333 14.6322C12.9769 14.7628 13.0204 14.8935 13.0639 14.9806L13.2381 14.8064C13.1946 14.937 13.151 15.1112 13.151 15.2418C13.1075 15.1983 13.1075 15.0676 13.1075 14.9806C13.0204 15.0241 12.9769 15.1547 12.8898 15.1983C12.8462 15.1112 12.8027 15.0241 12.8027 14.937C12.7156 14.9806 12.7156 15.0677 12.6285 15.1547C12.5849 15.0241 12.4543 14.8935 12.4978 14.7193C12.5849 14.6757 12.6285 14.5886 12.672 14.5451ZM12.5849 15.1983C12.6285 15.1112 12.672 15.0676 12.7591 14.9806C12.8027 15.0676 12.8462 15.1547 12.8462 15.2418C12.9333 15.1983 12.9769 15.0677 13.0204 15.0241C13.0639 15.1547 13.1075 15.3725 13.0204 15.5031H12.8898C12.8462 15.4596 12.8462 15.3725 12.8027 15.2854C12.7591 15.3289 12.7156 15.416 12.672 15.4596H12.6285C12.5849 15.3725 12.5414 15.2854 12.5414 15.1983C12.4978 15.2418 12.4543 15.3289 12.4107 15.3725C12.3672 15.3725 12.3237 15.3725 12.2801 15.3289C12.3237 15.1547 12.3672 14.9806 12.4543 14.7628C12.4978 14.937 12.5414 15.1112 12.5849 15.1983ZM12.8898 15.5467H12.7591C12.7591 15.5031 12.8027 15.4596 12.8027 15.416C12.8462 15.416 12.8462 15.5031 12.8898 15.5467ZM12.6285 15.5031C12.5414 15.5031 12.4978 15.4596 12.4543 15.4596C12.4543 15.3725 12.5414 15.3725 12.5414 15.2854C12.5849 15.3725 12.6285 15.416 12.6285 15.5031ZM12.6285 15.5467C12.8898 15.5902 13.0639 15.5902 13.2817 15.5902C13.3252 15.6338 13.2817 15.6773 13.2817 15.7644C13.1075 15.8079 12.9333 15.7644 12.7591 15.7644C12.7591 15.5902 12.6285 15.5467 12.6285 15.7208C12.4543 15.6773 12.193 15.6773 12.193 15.5902V15.4596C12.193 15.416 12.1495 15.416 12.2366 15.416C12.3672 15.4596 12.4543 15.5031 12.6285 15.5467ZM12.7156 15.7208C12.672 15.7208 12.672 15.7644 12.672 15.7644C12.5849 15.7644 12.5849 15.5467 12.7156 15.5902V15.7208ZM14.98 15.4596C15.0671 15.4596 15.1106 15.5467 15.1106 15.6338C15.0671 15.6338 15.0235 15.5902 14.98 15.5902V15.4596ZM14.7187 15.416C14.6316 15.1112 14.5445 14.8499 14.4574 14.5451C14.5445 14.5886 14.5881 14.6757 14.6316 14.7193C14.6316 13.979 14.5445 13.1951 14.5445 12.4113C14.4574 12.4549 14.3703 12.4984 14.1962 12.4984C13.8913 12.4984 13.63 12.3678 13.4559 12.2371C13.3252 12.3242 13.1075 12.4549 12.8898 12.4984C12.672 12.542 12.4978 12.5419 12.3672 12.4113C12.3237 13.1951 12.2801 13.9354 12.2801 14.7193C12.3672 14.6757 12.4107 14.5886 12.4978 14.5451C12.4107 14.8499 12.3237 15.1983 12.2366 15.4596C12.0624 15.416 11.8446 15.2854 11.8011 15.5902H11.4527C11.4963 15.5902 11.4963 15.5031 11.5834 15.416C11.6269 14.2403 11.6705 13.1081 11.714 11.8888C11.6269 11.8888 11.5398 11.9323 11.4963 11.9758C11.4963 11.8017 11.5834 11.6275 11.7575 11.6275C12.1495 11.5839 12.4543 11.9758 12.8462 11.9758C12.8462 12.0194 12.8027 12.0194 12.7591 12.0629C12.8462 12.0629 12.9769 12.0629 13.0204 12.0194C13.0204 12.0629 12.9769 12.1065 12.9333 12.15C13.1075 12.15 13.2381 12.0629 13.2817 11.9758L13.4123 12.1065L13.543 11.9758C13.63 12.0629 13.7607 12.15 13.9349 12.15C13.9349 12.1065 13.8478 12.0629 13.8478 12.0194C13.9349 12.0629 14.0655 12.0629 14.1091 12.0629C14.1091 12.0194 14.022 12.0194 14.022 11.9758C14.4574 11.9758 14.6752 11.5839 15.1106 11.6275C15.2848 11.6275 15.3719 11.7581 15.3719 11.9758C15.2848 11.9323 15.2413 11.8888 15.1542 11.8888C15.1977 12.8468 15.2413 14.0225 15.2848 14.9806C15.2848 15.1112 15.2413 15.2854 15.2848 15.3725C15.3284 15.4596 15.459 15.5031 15.5026 15.5902H15.0671C15.1542 15.416 14.9364 15.3725 14.7187 15.416Z" fill="#DB9C00"/>
<path d="M14.2397 12.4984C13.9349 12.4984 13.6736 12.3678 13.4994 12.2371C13.3688 12.3242 13.1511 12.4549 12.9333 12.4984C12.7156 12.5419 12.5414 12.5419 12.4108 12.4113V12.5855L12.6285 12.7597V12.5419C13.0204 12.5419 13.3252 12.4549 13.543 12.2807L13.8043 12.4113C13.9784 12.4984 14.1962 12.5419 14.4575 12.5419C14.4575 13.1081 14.2833 13.5871 14.022 13.9354H14.0655L14.1091 13.8919V13.979C14.1091 13.8483 14.1526 13.7177 14.2397 13.6306H14.2833C14.2833 13.8048 14.4139 14.0225 14.3704 14.1967L14.4139 14.2403C14.3704 14.1532 14.3704 13.979 14.3704 13.8483C14.3704 13.5871 14.3268 13.3258 14.3704 13.1081H14.4139C14.4139 13.5 14.4575 13.9354 14.4575 14.3274L14.6752 14.5015C14.6752 13.8048 14.6316 13.1081 14.5881 12.4113C14.501 12.4549 14.4139 12.4984 14.2397 12.4984Z" fill="#996A00"/>
<path d="M15.5897 13.8048C15.5897 13.5435 15.5897 13.2822 15.5461 13.021C15.5026 12.5855 15.5461 12.15 15.459 11.7581C15.372 11.671 15.2413 11.5839 15.1107 11.6275C14.7623 11.671 14.4575 12.0194 14.1091 11.9758C14.022 11.8452 13.9349 11.671 13.8914 11.4097V11.0614C13.8914 10.8436 13.8478 10.6694 13.7172 10.5824C13.6301 10.5388 13.4559 10.4953 13.3253 10.4953C13.2817 10.4953 13.2382 10.5388 13.1946 10.5824C13.0204 10.4953 12.7592 10.4517 12.8027 10.713C12.9769 10.6259 13.1511 10.8436 13.1511 11.0178C13.1946 11.3662 13.064 11.8017 12.8898 11.9323C12.4979 11.9323 12.2366 11.6275 11.8882 11.5839C11.6705 11.5839 11.5834 11.671 11.5399 11.8017C11.5834 11.7146 11.6705 11.6275 11.8011 11.6275C12.1931 11.5839 12.4979 11.9758 12.8898 11.9758C12.8898 12.0194 12.8463 12.0194 12.8027 12.0629C12.8898 12.0629 13.0204 12.0629 13.064 12.0194C13.064 12.0629 13.0204 12.1065 12.9769 12.15C13.1511 12.15 13.2817 12.0629 13.3253 11.9758L13.4559 12.1065L13.5865 11.9758C13.6736 12.0629 13.8043 12.15 13.9785 12.15C13.9785 12.1065 13.8914 12.0629 13.8914 12.0194C13.9785 12.0629 14.1091 12.0629 14.1526 12.0629C14.1526 12.0194 14.0656 12.0194 14.0656 11.9758C14.501 11.9758 14.7188 11.5839 15.1542 11.6275C15.3284 11.6275 15.4155 11.7581 15.4155 11.9758C15.3284 11.9323 15.2849 11.8888 15.1978 11.8888C15.2413 12.8468 15.2849 14.0225 15.3284 14.9806V15.1112L15.5897 15.3289C15.6332 14.8064 15.6332 14.3274 15.5897 13.8048Z" fill="#996A00"/>
<path d="M11.7576 12.0194V11.8888C11.714 11.8888 11.6705 11.8888 11.627 11.9323L11.7576 12.0194Z" fill="#996A00"/>
<path d="M11.8011 11.9323C11.7576 13.0645 11.714 14.1967 11.6705 15.2854C11.7576 15.2418 11.8447 15.1112 11.9318 15.0676C11.9753 14.0225 12.0188 13.1516 12.0624 12.15C11.9753 12.0629 11.8882 11.9758 11.8011 11.9323Z" fill="#DB9C00"/>
<path d="M11.8011 12.0629L12.0624 12.2807V12.15C11.9753 12.0629 11.8882 11.9758 11.8011 11.9323V12.0629Z" fill="#996A00"/>
<path d="M15.1977 11.9323C15.1542 12.0194 14.98 12.0629 14.9365 12.15V12.5419C15.0236 13.3258 14.98 14.1967 15.0236 15.0241L15.1542 15.1547C15.1977 15.1983 15.2413 15.2854 15.2848 15.2418C15.2848 14.1967 15.2413 12.9339 15.1977 11.9323Z" fill="#DB9C00"/>
<path d="M15.1977 11.9323C15.1542 12.0194 14.98 12.0629 14.9365 12.15V12.5419C14.98 13.2387 14.98 14.0225 15.0236 14.8064L15.2848 15.0241C15.2848 14.0225 15.2413 12.8903 15.1977 11.9323Z" fill="#996A00"/>
<path d="M12.0189 14.9806C12.0624 14.8935 12.193 14.8499 12.2366 14.7628C12.2801 14.6757 12.2366 14.5451 12.2366 14.4145C12.2801 13.7613 12.3237 12.9774 12.3237 12.3678C12.2366 12.3242 12.193 12.2371 12.106 12.1936C12.106 13.1081 12.0624 14.0661 12.0189 14.9806Z" fill="#DB9C00"/>
<path d="M12.106 12.3242L12.3237 12.4984V12.3678C12.2366 12.3242 12.1931 12.2371 12.106 12.1936C12.1495 12.2371 12.106 12.2807 12.106 12.3242Z" fill="#996A00"/>
<path d="M14.6752 12.3678C14.7187 13.1516 14.7187 13.979 14.7623 14.7628L14.9364 14.937L14.98 14.9806C14.9365 14.0661 14.8929 13.0645 14.8494 12.2371C14.8058 12.2807 14.7187 12.3242 14.6752 12.3678Z" fill="#DB9C00"/>
<path d="M14.8494 12.1936C14.8058 12.2371 14.7187 12.2807 14.6752 12.3678C14.7187 13.1081 14.7187 13.8483 14.7623 14.5886L14.98 14.7628C14.9365 13.8919 14.8929 12.9774 14.8494 12.1936Z" fill="#996A00"/>
<path d="M12.6285 12.5419C12.672 13.3693 12.9769 13.9354 13.4994 14.2838C14.022 13.9354 14.3268 13.3693 14.3268 12.5419C13.9784 12.5419 13.6736 12.4549 13.4994 12.2807C13.3252 12.4549 12.9769 12.5419 12.6285 12.5419Z" fill="#DB9C00"/>
<path d="M12.6285 12.5419C12.6285 12.629 12.672 12.6726 12.672 12.7597L13.9349 13.8483C14.1962 13.5 14.3268 13.0645 14.3268 12.5419C13.9784 12.5419 13.6736 12.4549 13.4994 12.2807C13.3252 12.4549 12.9769 12.5419 12.6285 12.5419Z" fill="#996A00"/>
<path d="M12.106 15.5031C12.1495 15.5031 12.1931 15.5467 12.2366 15.5467C12.2366 15.4596 12.1495 15.4596 12.106 15.5031ZM14.7623 15.5467C14.8058 15.5467 14.8494 15.5031 14.8929 15.5031C14.8929 15.4596 14.7623 15.4596 14.7623 15.5467ZM12.4979 15.5902C12.4543 15.5467 12.4108 15.5467 12.3237 15.5467C12.3672 15.5902 12.4543 15.5902 12.4979 15.5902ZM14.501 15.5902C14.5446 15.5902 14.6752 15.5902 14.6752 15.5467C14.5881 15.5467 14.501 15.5902 14.501 15.5902ZM14.022 15.6773H14.1962C14.1962 15.5902 14.0656 15.5902 14.022 15.6773ZM12.9769 15.6338C12.9333 15.6338 12.8027 15.5902 12.8027 15.6773C12.8462 15.6338 12.9769 15.6773 12.9769 15.6338ZM13.2382 15.6338C13.1946 15.6338 13.064 15.6338 13.064 15.6773C13.1075 15.6773 13.1946 15.6773 13.2382 15.6338ZM13.7607 15.6773C13.8043 15.6773 13.8478 15.6773 13.9349 15.7208C13.9349 15.6338 13.8043 15.6338 13.7607 15.6773Z" fill="#DB9C00"/>
<path d="M15.0671 15.9821C14.9365 15.9821 14.98 15.7644 14.8929 15.7208C14.8494 15.7208 14.8058 15.7208 14.7623 15.7644C14.8929 15.6773 14.9365 15.895 14.9365 16.0257C14.8929 16.0257 14.8929 15.9821 14.8494 15.9821C14.7623 15.9821 14.7623 16.0692 14.6752 16.0692C14.6752 16.0257 14.6317 16.0257 14.5446 16.0257C14.501 15.9821 14.5446 15.895 14.501 15.895C14.501 15.9386 14.5446 15.9821 14.5446 16.0257C14.501 16.0692 14.501 16.0692 14.501 16.1128H14.4139C14.4139 16.0692 14.4139 16.0257 14.3704 16.0257C14.3704 16.0692 14.2833 16.0692 14.3268 16.1128C14.3268 16.1128 14.3704 16.1128 14.4139 16.1563C14.4139 16.1999 14.3704 16.1999 14.3704 16.2434C14.4139 16.2434 14.4139 16.1999 14.4575 16.1563C14.5446 16.1563 14.6317 16.1128 14.6752 16.1563C14.7187 16.1563 14.7187 16.0692 14.7623 16.0692C14.8494 16.1563 14.9365 16.0257 14.98 16.0257H15.1107V15.9821C15.0671 15.9386 15.1107 15.9821 15.0671 15.9821ZM14.3268 16.1128C14.3268 16.0692 14.3268 16.0692 14.3704 16.0692V16.1128C14.3704 16.1128 14.3704 16.1563 14.3268 16.1128ZM14.5446 16.1128V16.0257C14.5881 16.0257 14.5881 16.0692 14.5446 16.1128ZM14.6752 16.0692H14.6317C14.5446 16.0257 14.6752 15.9821 14.6752 16.0692ZM14.6317 16.1128C14.6317 16.0692 14.6752 16.0692 14.6752 16.0692C14.6752 16.1128 14.6317 16.1563 14.6317 16.1128ZM14.7623 16.0692C14.7623 15.9821 14.8494 15.9821 14.8929 16.0257C14.8929 16.0692 14.8058 16.0692 14.7623 16.0692ZM12.1495 15.8079C12.1495 15.7644 12.1495 15.7644 12.1495 15.8079C12.106 15.7644 12.106 15.7644 12.0624 15.7644V15.8079H12.1495ZM12.106 15.8515H12.0189C12.0624 15.895 12.0624 15.895 12.106 15.8515ZM13.8478 15.9821V15.9386H13.8043C13.8043 15.9386 13.8043 15.9821 13.8478 15.9821ZM12.8462 16.2434C12.8027 16.1999 12.8027 16.1563 12.7592 16.1128C12.8462 16.0692 12.8027 15.9386 12.7592 15.9386C12.7156 15.9386 12.7156 15.9821 12.6721 15.9821C12.6721 16.0257 12.7156 16.0257 12.7156 16.0692C12.6721 16.0692 12.585 16.1128 12.5414 16.0692C12.5414 16.0257 12.5414 15.9821 12.4979 15.9821C12.4979 16.0257 12.5414 16.1128 12.4543 16.1563C12.4979 16.1563 12.4979 16.1128 12.5414 16.1128C12.585 16.1563 12.6721 16.1128 12.7156 16.1128C12.8027 16.1563 12.8027 16.2869 12.8462 16.2434C12.9333 16.2434 12.9333 16.0257 12.8898 15.9386C12.8898 16.0257 12.9769 16.2434 12.8462 16.2434ZM12.6721 16.0692C12.6721 15.9386 12.8462 16.0692 12.7156 16.1128L12.6721 16.0692ZM13.0204 16.1999C13.0204 16.1128 13.064 15.9821 13.0204 15.9386C13.0204 15.9821 12.9769 16.1128 13.0204 16.1999ZM14.0655 16.0257C14.022 16.0692 14.1091 16.0692 14.0655 16.1128C14.0655 16.1563 14.022 16.1563 13.9785 16.1563C13.8914 16.1128 13.9785 15.9386 13.9349 15.895C13.9349 15.9386 13.9785 16.0257 13.9349 16.1128C13.8914 16.1128 13.8478 16.1128 13.8478 16.1563H14.1091C14.1091 16.1563 14.1526 16.0257 14.0655 16.0257Z" fill="#F5FEFF"/>
<path d="M13.8913 16.0257C13.8913 15.9821 13.8478 16.0257 13.8478 16.0257C13.7607 16.0257 13.8913 16.0692 13.8913 16.0257ZM14.1962 16.0257C14.1526 16.0692 14.2397 16.1128 14.2397 16.1563C14.2397 16.1999 14.1962 16.1999 14.1962 16.2434C14.2397 16.2434 14.2833 16.0692 14.1962 16.0257ZM14.2397 16.1563C14.1962 16.1563 14.1962 16.1128 14.1962 16.1128C14.1962 16.0692 14.2397 16.1128 14.2397 16.1563ZM14.98 16.0692C15.0235 16.0692 15.0671 16.1128 15.0671 16.0692C15.0235 16.0692 14.98 16.0257 14.98 16.0692ZM13.6301 16.1999H13.5865C13.5865 16.1563 13.5865 16.1128 13.543 16.1128C13.4559 16.1563 13.3252 16.1128 13.2381 16.0692C13.2381 16.1128 13.2817 16.1563 13.1946 16.1999C13.151 16.1999 13.151 16.1128 13.1075 16.1128C13.0639 16.1563 13.151 16.1999 13.151 16.1999C13.151 16.2434 13.1075 16.287 13.0639 16.3305C13.1075 16.3305 13.151 16.2434 13.1946 16.1999H13.4559C13.4559 16.2434 13.4994 16.2434 13.543 16.2869C13.5865 16.2869 13.5865 16.1999 13.5865 16.1999C13.6736 16.1999 13.7171 16.1999 13.7607 16.1563C13.7607 16.0692 13.6301 16.1128 13.6301 16.1999ZM13.4994 16.2869C13.4559 16.2869 13.4559 16.2434 13.4559 16.1999H13.2817C13.2817 16.0257 13.4559 16.1999 13.543 16.1128C13.5865 16.1999 13.543 16.2434 13.4994 16.2869ZM13.6736 16.1999C13.6301 16.1563 13.7171 16.1128 13.7171 16.1563C13.7171 16.1999 13.7171 16.1999 13.6736 16.1999ZM12.1059 16.1999V16.1563C12.1059 16.1563 12.1059 16.1128 12.0624 16.1563C12.0624 16.1128 12.0624 16.1563 12.1059 16.1999ZM12.1495 16.1999C12.193 16.2434 12.2366 16.1999 12.2366 16.1563C12.193 16.1128 12.1495 16.1563 12.1495 16.1999ZM12.2801 16.1999H12.3237C12.3237 16.1128 12.2366 16.1563 12.2801 16.1999ZM13.9349 16.2434C13.8913 16.2434 13.8913 16.3305 13.9349 16.3305V16.2434ZM13.9784 16.2869C13.9784 16.3305 14.022 16.3305 14.022 16.3305C14.1091 16.287 13.9784 16.1999 13.9784 16.2869Z" fill="#F5FEFF"/>
<path d="M12.4107 15.9821C12.4978 16.1128 12.3237 16.1563 12.2801 16.0692C12.2801 16.0257 12.3237 16.0257 12.3237 15.9821C12.2801 15.9821 12.2801 16.0692 12.2801 16.0692C12.1059 16.0692 12.2366 15.8515 12.2366 15.7644H12.193C12.193 15.8515 12.1495 15.9386 12.0624 15.9821C12.0624 16.0692 12.1495 16.0692 12.2366 16.1128C12.2801 16.1563 12.3672 16.1563 12.4107 16.1563C12.4107 16.0692 12.4978 15.9821 12.4107 15.9821Z" fill="#F5FEFF"/>
</svg>
