<svg width="54" height="70" viewBox="0 0 54 70" fill="none" xmlns="http://www.w3.org/2000/svg">
<mask id="mask0_1069_162" style="mask-type:luminance" maskUnits="userSpaceOnUse" x="0" y="0" width="54" height="70">
<path d="M0.310791 0H54V70H0.310791V0Z" fill="white"/>
</mask>
<g mask="url(#mask0_1069_162)">
<path d="M45.2477 51.4304C45.2618 50.1409 44.347 49.1657 43.0905 49.1306C41.8863 49.097 40.9004 50.1181 40.8978 51.4016C40.8952 52.6855 41.7922 53.6334 43.0344 53.6595C44.2873 53.6859 45.2336 52.7328 45.2477 51.4304ZM28.6924 51.5807C28.4681 51.0054 28.2536 50.4458 28.1831 49.8389C27.9589 47.9078 29.1539 46.0717 30.9605 45.6062C32.4019 45.2347 33.8875 45.7888 34.6991 46.9883C34.8636 47.2315 33.7407 48.2618 33.0886 47.693C32.4689 47.1524 31.5834 47.0291 30.9379 47.3936C30.1378 47.8454 29.6441 48.8077 29.8176 49.6747C30.0561 50.8661 30.6519 51.7003 32.1485 51.6566C34.3344 51.5927 36.5234 51.6201 38.7108 51.6387C39.148 51.6424 39.2549 51.4977 39.2792 51.0838C39.3942 49.1241 40.8705 47.6019 42.7747 47.4372C44.6247 47.2772 46.3328 48.5374 46.8124 50.4162C47.2881 52.2798 46.3675 54.2714 44.6722 55.0456C42.9251 55.8435 40.9867 55.2839 39.8891 53.6241C39.7019 53.341 39.5166 53.2959 39.223 53.2961C32.6774 53.2993 26.1318 53.2864 19.5863 53.3055C19.0382 53.3071 18.9221 53.1456 18.9248 52.6344C18.9428 49.223 18.9399 45.8113 18.9211 42.3999C18.9184 41.9235 19.0409 41.7663 19.537 41.7851C20.5671 41.824 20.5681 41.7938 20.5682 42.8475C20.5685 45.6136 20.5726 48.3798 20.5643 51.1459C20.5633 51.4711 20.6074 51.6405 21.0029 51.6375C23.5031 51.6188 26.0035 51.6258 28.5039 51.6226C28.5534 51.6225 28.6029 51.6012 28.6924 51.5807Z" fill="#35A36E"/>
<path d="M9.84603 47.9483C9.59306 48.2237 9.42851 48.4154 9.25076 48.5939C8.675 49.172 8.48716 49.9456 8.8016 50.658C9.10986 51.3564 9.68071 51.6511 10.4339 51.6455C11.8301 51.6351 13.2265 51.6459 14.6228 51.636C15.5816 51.6291 15.8889 51.303 15.8895 50.3209C15.8911 47.6306 15.8998 44.9402 15.8814 42.25C15.8785 41.8192 15.9851 41.681 16.4301 41.6969C17.5269 41.7362 17.5277 41.7137 17.5277 42.8014C17.5277 45.4365 17.526 48.0715 17.5292 50.7065C17.5298 51.1922 17.4553 51.6626 17.2532 52.1027C16.893 52.8872 16.2503 53.2603 15.4095 53.268C13.5724 53.2846 11.734 53.3207 9.89821 53.2715C7.94681 53.2194 6.6287 51.122 7.19784 49.0697C7.4786 48.0573 7.61587 47.9513 8.65456 47.9485C9.01431 47.9475 9.3741 47.9483 9.84603 47.9483Z" fill="#35A36E"/>
<path d="M17.2004 65.5321C17.1653 64.7645 17.1284 63.9969 17.0914 63.2292C17.0221 61.7895 16.9503 60.3008 16.8934 58.8366L16.8914 58.7835C16.8326 57.2614 16.741 57.1684 15.258 57.1243L15.1866 57.1222C14.5339 57.1033 14.1862 57.3601 13.9891 58.011C13.5036 59.6167 12.9852 61.2426 12.4839 62.815L12.1679 63.8068C12.0016 63.2797 11.8375 62.752 11.6732 62.2243C11.3129 61.0664 10.9402 59.8689 10.5514 58.6976C10.4711 58.4558 10.4093 58.2517 10.3597 58.0879C10.0845 57.1795 10.0009 57.1174 9.10289 57.1353C8.9281 57.1387 8.7106 57.1433 8.44435 57.1395C8.07166 57.1349 7.83649 57.1621 7.67187 57.3235C7.50688 57.4853 7.47393 57.7204 7.47082 58.0977C7.46351 58.9898 7.32645 61.7552 7.23569 63.5849C7.19876 64.3303 7.16826 64.9465 7.15448 65.2703C7.13554 65.7155 7.12508 65.9608 7.28334 66.1285C7.43784 66.292 7.66496 66.2946 8.07718 66.2992L8.12424 66.2998C8.56707 66.3071 8.75671 66.1237 8.77221 65.6742C8.85087 63.3792 8.95417 61.1034 9.05469 58.8996C9.31962 59.7344 9.58305 60.5696 9.84641 61.4046C10.1259 62.2909 10.4055 63.1772 10.6868 64.0629C10.721 64.1704 10.7505 64.2672 10.7773 64.3544C11.0491 65.2426 11.1394 65.3059 12.1578 65.3233L12.3864 65.3276C12.9974 65.3411 13.3214 65.0976 13.5055 64.4885C14.0326 62.7454 14.5967 60.9807 15.1422 59.2741L15.2821 58.8366C15.3048 59.3056 15.3284 59.7746 15.352 60.2436C15.4399 61.9876 15.5307 63.791 15.5687 65.5642C15.5751 65.8541 15.6413 66.0462 15.7771 66.1687C15.9508 66.325 16.1709 66.3063 16.3477 66.2914C16.4288 66.2844 16.5054 66.2777 16.5632 66.2882C16.6276 66.2998 16.6872 66.3056 16.7423 66.3056C16.8827 66.3056 16.993 66.2677 17.0763 66.1912C17.2432 66.0384 17.2236 65.813 17.2077 65.6319C17.2048 65.5982 17.2018 65.5646 17.2004 65.5321Z" fill="#35A36E"/>
<path d="M30.8922 61.4113C31.735 60.8123 32.0667 59.8452 31.8283 58.6485C31.6261 57.6329 31.0402 57.1764 29.7386 57.0206C28.7827 56.9063 27.8342 57.0054 26.9173 57.1012L26.6041 57.1336C26.3995 57.1544 26.2569 57.2198 26.1684 57.3335C26.0488 57.4872 26.0644 57.677 26.0884 57.8428C26.0925 57.8706 26.0955 57.8981 26.0985 57.9251C26.1201 58.1183 26.1643 58.5201 26.7318 58.4803C27.5568 58.4218 28.4405 58.3765 29.3158 58.4409C30.0905 58.4978 30.2833 58.6986 30.2984 59.464C30.3192 60.5092 29.9129 60.7512 29.2965 60.7928C28.7349 60.8306 28.1687 60.8368 27.6131 60.8117C27.4129 60.803 27.2651 60.8462 27.1634 60.9451C27.019 61.0856 27.0217 61.28 27.024 61.4361C27.0244 61.4603 27.0248 61.4849 27.0246 61.5095L27.0243 61.5464C27.0223 61.7084 27.0201 61.8922 27.1596 62.0297C27.2577 62.1264 27.401 62.1704 27.5973 62.1649L27.7643 62.1598C28.3485 62.1417 28.9522 62.1231 29.5338 62.2057C29.8989 62.2574 30.3531 62.4309 30.4434 62.9629C30.5723 63.7224 30.5086 64.243 30.2488 64.5546C30.0075 64.8441 29.5727 64.9879 28.9198 64.9943C28.1983 65.0015 27.3603 64.9998 26.5506 64.8927C26.4715 64.882 26.3157 64.8946 26.1643 65.0945C25.9909 65.3236 25.8794 65.7201 25.9929 65.9871C26.0615 66.1483 26.1988 66.2487 26.3795 66.2696C27.2289 66.368 28.0227 66.45 28.8051 66.45C29.1864 66.45 29.5651 66.4305 29.9461 66.384C30.9719 66.2591 31.6402 65.7747 31.9323 64.9442C32.4526 63.4654 32.0826 62.2239 30.8922 61.4113Z" fill="#35A36E"/>
<path d="M37.4135 64.5086C36.6935 64.9227 36.1108 65.0725 35.5274 64.9958C35.0791 64.9364 34.9261 64.8364 34.9667 63.9462C34.9872 63.4953 35.1311 63.3506 35.5819 63.3266C35.6316 63.324 35.709 63.3178 35.8061 63.31C37.4413 63.1777 37.7668 63.3141 37.8299 63.383C37.9912 63.9031 37.8625 64.2504 37.4135 64.5086ZM39.3637 61.3817C39.3214 60.3348 38.82 59.7873 37.7381 59.6064C36.8102 59.4513 35.8922 59.5616 35.0044 59.6681C34.7481 59.6988 34.4831 59.7306 34.2238 59.7552C34.0887 59.7679 33.8625 59.7893 33.7379 59.9691C33.6577 60.0846 33.6417 60.2356 33.6903 60.4178C33.6998 60.4538 33.7072 60.49 33.7144 60.5249C33.7563 60.7279 33.8351 61.1054 34.3918 61.0449C35.1522 60.9624 36.0371 60.8772 36.9191 60.9129C37.6462 60.9423 37.8352 61.1439 37.8381 61.8937C37.8386 62.0243 37.823 62.0496 37.8245 62.0493C37.8233 62.0501 37.7942 62.0678 37.6748 62.0656C36.8387 62.0517 35.9412 62.0445 35.0422 62.086C33.9971 62.1344 33.382 62.7799 33.3546 63.8573C33.3514 63.9802 33.3526 64.1031 33.3538 64.226L33.3549 64.3469C33.3615 65.5988 34.0855 66.3491 35.341 66.4053C35.3982 66.4078 35.4551 66.4091 35.5117 66.4091C36.3655 66.4091 37.1621 66.1173 37.984 65.5019C38.0069 65.6376 38.0277 65.7613 38.0479 65.8853C38.094 66.1696 38.3535 66.3329 38.7114 66.302C39.0531 66.2723 39.4143 66.0808 39.4108 65.7849C39.4045 65.2746 39.4042 64.7548 39.4038 64.2522C39.4031 63.3116 39.4024 62.339 39.3637 61.3817Z" fill="#35A36E"/>
<path d="M22.5502 64.5086C21.8892 64.8967 21.2699 65.0571 20.6571 64.998C20.2522 64.9591 20.1062 64.8427 20.0939 64.2665C20.0764 63.4473 20.2025 63.3961 20.6038 63.3579L20.6452 63.3539C21.2718 63.2934 21.7305 63.272 22.0661 63.272C22.7625 63.272 22.9285 63.3643 22.9618 63.391C23.1274 63.8586 22.9815 64.2552 22.5502 64.5086ZM24.4976 61.3942C24.4583 60.3456 23.9601 59.7947 22.8824 59.6076C21.968 59.4487 21.0636 59.5575 20.1889 59.6626C19.9365 59.6929 19.6756 59.7242 19.4201 59.7483L19.3718 59.7525C19.2116 59.7659 19.0123 59.7826 18.8864 59.9481C18.8009 60.0603 18.7765 60.2066 18.8114 60.3955C18.8608 60.6617 18.943 61.1073 19.5721 61.0407C20.3599 60.9571 21.1997 60.8784 22.047 60.9118C22.771 60.9406 22.9345 61.106 22.9676 61.8441C22.9751 62.0109 22.948 62.0436 22.9476 62.0439C22.9474 62.0442 22.9173 62.0721 22.7532 62.0682C22.0431 62.053 21.1079 62.0407 20.1728 62.0836C19.1337 62.1313 18.502 62.7938 18.4825 63.856C18.4794 64.03 18.4798 64.2082 18.4837 64.4011C18.5088 65.6111 19.2319 66.3406 20.4677 66.4024C20.5311 66.4056 20.5943 66.4072 20.657 66.4072C21.4967 66.4072 22.2755 66.1212 23.1251 65.4991C23.146 65.6023 23.1619 65.6964 23.1653 65.787C23.1768 66.0916 23.4104 66.2822 23.7632 66.2739C24.0924 66.2656 24.5463 66.0768 24.5422 65.7441C24.5359 65.229 24.5353 64.7045 24.5347 64.1973C24.5337 63.2788 24.5327 62.329 24.4976 61.3942Z" fill="#35A36E"/>
<path d="M46.9844 65.9362C46.7442 65.6197 46.5118 65.3102 46.2838 65.0066C45.6991 64.228 45.1469 63.4924 44.565 62.7745C44.438 62.6177 44.438 62.6177 44.6002 62.4453C45.1118 61.9019 45.5974 61.3573 46.1114 60.7807C46.3052 60.5632 46.5002 60.3445 46.6976 60.1249L46.9581 59.8349C46.9581 59.8349 46.5765 59.7597 46.5763 59.7596C46.2048 59.6863 45.8155 59.6451 45.4435 59.7377C45.2461 59.7869 45.0598 59.8741 44.8963 59.9956C44.7046 60.1382 44.5759 60.3261 44.4291 60.5116C44.0682 60.9675 43.6847 61.4285 43.2752 61.8391C43.1735 61.9667 42.9402 62.0799 42.8036 62.0303C42.678 61.9844 42.6644 61.7609 42.6676 61.6246C42.6548 60.1865 42.6619 58.8704 42.6894 57.6009C42.6936 57.4006 42.5941 57.2296 42.4091 57.1195C42.1322 56.9546 41.6894 56.955 41.4016 57.1206C41.2082 57.2319 41.1024 57.4041 41.1038 57.6052C41.1214 60.2244 41.1222 62.9495 41.106 65.7047C41.1047 65.917 41.209 66.0931 41.3995 66.2005C41.5278 66.2729 41.6912 66.3085 41.8583 66.3085C42.0543 66.3085 42.2554 66.2595 42.4111 66.1633C42.5928 66.0511 42.6924 65.881 42.684 65.6966C42.662 65.2138 42.6706 64.7305 42.6693 64.2474C42.6684 63.9446 42.6568 63.6449 42.6419 63.3426C42.6399 63.3016 42.6407 63.2542 42.6721 63.2278C42.6878 63.2146 42.7085 63.2094 42.7286 63.2052C42.7951 63.1915 42.8632 63.1855 42.9311 63.1875C42.9865 63.1892 43.0428 63.1963 43.0932 63.2195C43.2856 63.3081 43.4347 63.6239 43.5545 63.7891C43.7244 64.0232 43.8939 64.2574 44.063 64.492C44.3957 64.9533 44.7265 65.4159 45.0537 65.8811C45.214 66.1091 45.4289 66.2831 45.7164 66.3005C46.226 66.3315 46.7434 66.2915 47.254 66.2915L46.9844 65.9362Z" fill="#35A36E"/>
<path d="M12.5895 48.4251C12.3877 48.4255 11.314 48.5725 11.2687 48.2753C11.2228 47.9741 10.9007 47.4667 11.5402 47.2809C11.6948 47.236 11.5902 47.0153 11.5895 46.8767C11.5841 45.8072 12.346 45.1179 13.3899 45.2237C13.8703 45.2724 13.8169 46.3597 13.3959 46.3351C13.2683 46.3276 13.136 46.3241 13.0121 46.3493C12.7698 46.3985 12.62 46.5536 12.6226 46.8092C12.6254 47.0757 12.7417 47.2712 13.0307 47.3084C13.1209 47.32 13.2138 47.3095 13.3055 47.3104C13.9447 47.317 14.1413 47.6043 13.9688 48.2325C13.9118 48.4402 13.7773 48.4221 13.6348 48.4235C13.2864 48.427 12.9379 48.4246 12.5895 48.4251Z" fill="#35A36E"/>
<path d="M44.4575 21.7129C44.4575 31.2948 36.7125 39.0624 27.1585 39.0624C17.6046 39.0624 9.85962 31.2948 9.85962 21.7129C9.85962 12.131 17.6046 4.36344 27.1585 4.36344C36.7125 4.36344 44.4575 12.131 44.4575 21.7129Z" fill="#35A36E"/>
<path d="M38.7385 19.4166C38.6925 20.167 38.4602 20.8757 38.0403 21.5031C37.1449 22.8409 35.6898 23.3281 34.1503 23.0108C33.4499 22.8663 32.8196 22.5518 32.2276 22.1597C31.3618 21.5862 29.8395 20.0194 29.7998 19.9547C29.1807 20.6131 28.6046 21.2258 28.0319 21.8348C28.0553 21.8721 29.8464 23.6794 30.8847 24.402C31.8551 25.0773 32.9101 25.5459 34.0732 25.764C34.1568 25.7796 34.2397 25.799 34.3484 25.822C31.9393 28.2697 29.5489 30.6985 27.1477 33.1382C24.7551 30.6978 22.3826 28.2779 20.01 25.8581C20.0202 25.8438 20.0303 25.8295 20.0405 25.8152C20.0648 25.8114 20.089 25.8068 20.1134 25.804C20.7063 25.7373 21.2736 25.5774 21.8239 25.3472C23.0176 24.8479 24.0105 24.0516 24.9477 23.1864C25.5669 22.6148 26.1474 21.9991 26.7217 21.3812C28.1111 19.8862 29.4969 18.3882 30.9555 16.9601C31.4322 16.4933 31.9463 16.075 32.5149 15.7253C33.4239 15.166 34.394 14.8673 35.471 15.0335C36.0176 15.1179 36.5375 15.2965 36.9793 15.6281C38.2362 16.5715 38.8352 17.8424 38.7385 19.4166ZM41.4641 18.648C41.3587 17.1635 40.8842 15.8112 39.9341 14.6502C38.9582 13.4576 37.7203 12.6827 36.2096 12.3708C34.7221 12.0638 33.3014 12.2744 31.9581 12.9828C30.8587 13.5625 29.8998 14.3367 29.0306 15.2159C28.1319 16.1248 27.2759 17.0762 26.3894 17.9976C25.3327 19.0958 24.2774 20.196 23.1943 21.2678C22.5634 21.892 21.842 22.4051 21.0193 22.7624C20.4096 23.0272 19.7746 23.0914 19.1183 23.072C17.5279 23.025 15.9694 21.6182 15.6532 19.8143C15.417 18.4668 15.714 17.2579 16.5801 16.207C17.1507 15.5147 17.914 15.1466 18.7994 15.0304C19.8025 14.8988 20.7187 15.1604 21.586 15.6475C22.6174 16.2267 23.4924 16.9979 24.2934 17.8605C24.3728 17.9459 24.453 18.0304 24.5409 18.1239C25.1391 17.4883 25.7199 16.8712 26.315 16.2389C25.8144 15.754 25.3356 15.2709 24.8359 14.8107C24.1158 14.1473 23.3425 13.5525 22.4745 13.0921C21.7261 12.6951 20.9371 12.4187 20.0945 12.306C18.8521 12.1398 17.6431 12.248 16.492 12.772C15.193 13.3634 14.235 14.3119 13.6038 15.595C13.2188 16.3774 13.0009 17.2052 12.8943 18.069C12.7499 19.238 12.8799 20.3753 13.2697 21.481C13.5085 22.1585 13.9222 22.7402 14.3316 23.3229C15.421 24.8738 16.6886 26.2696 18.0195 27.6113C19.3737 28.9765 20.7266 30.343 22.0793 31.7096C23.7238 33.3711 25.3676 35.0333 27.0111 36.6957C27.0504 36.7355 27.0831 36.7819 27.1317 36.8407C27.2874 36.6975 27.4307 36.5765 27.5619 36.4435C29.1247 34.8595 30.6824 33.2705 32.248 31.6894C33.7634 30.1591 35.2885 28.6386 36.8053 27.1096C37.8903 26.016 38.9058 24.8587 39.8953 23.6782C40.6787 22.7437 41.151 21.6695 41.3532 20.4661C41.4547 19.8619 41.5072 19.2552 41.4641 18.648Z" fill="white"/>
</g>
</svg>
