<svg width="55" height="23" viewBox="0 0 55 23" fill="none" xmlns="http://www.w3.org/2000/svg">
<path d="M47.9131 22.6363H7.08693C3.15351 22.6363 0 19.5068 0 15.6782V7.32185C0 3.45995 3.18742 0.36377 7.08693 0.36377H47.9131C51.8465 0.36377 55 3.49324 55 7.32185V15.6782C55 19.5068 51.8465 22.6363 47.9131 22.6363Z" fill="#5AFEAE"/>
<path d="M45.099 7.52169L42.2846 18.0753V18.1086H44.4887L47.3031 7.55498H45.099V7.52169ZM10.3086 13.5143C9.96955 13.6807 9.63046 13.7473 9.25747 13.7473C8.47757 13.7473 8.03675 13.6142 7.96894 12.9816V12.9483C7.96894 12.915 7.96894 12.915 7.96894 12.8817V11.0507V10.8509V9.55251V9.01984V8.82009V7.58827L6.00223 7.82132C7.32467 7.55498 8.07066 6.55621 8.07066 5.52415V4.8916H5.86659V7.85461L5.73096 7.8879V13.3478C5.79877 14.8793 6.84995 15.8115 8.51148 15.8115C9.12183 15.8115 9.7661 15.6783 10.2747 15.4452L10.3086 13.5143Z" fill="#313535"/>
<path d="M10.6475 7.12211L4.47607 8.05429V9.58574L10.6475 8.65355V7.12211ZM10.6475 9.38598L4.47607 10.3182V11.783L10.6475 10.8508V9.38598ZM17.5648 10.0851C17.4631 8.38722 16.378 7.35516 14.6148 7.35516C13.5975 7.35516 12.7498 7.75466 12.1734 8.48709C11.5969 9.21952 11.2917 10.2849 11.2917 11.5833C11.2917 12.8817 11.5969 13.947 12.1734 14.6794C12.7498 15.4119 13.5975 15.7781 14.6148 15.7781C16.378 15.7781 17.4631 14.7793 17.5648 13.0481V15.6116H19.7689V7.55491L17.5648 7.88783V10.0851ZM17.7005 11.5833C17.7005 13.0814 16.8867 14.0802 15.632 14.0802C14.3435 14.0802 13.5636 13.148 13.5636 11.5833C13.5636 10.0185 14.3435 9.08635 15.632 9.08635C16.2424 9.08635 16.7849 9.3194 17.1579 9.78549C17.497 10.2183 17.7005 10.8508 17.7005 11.5833ZM26.1777 7.35516C24.4144 7.35516 23.3293 8.35393 23.2276 10.0851V5.19116L21.0235 5.52408V15.6116H23.2276V13.0481C23.3293 14.7793 24.4144 15.7781 26.1777 15.7781C28.2461 15.7781 29.5007 14.2134 29.5007 11.5833C29.5007 8.95319 28.2461 7.35516 26.1777 7.35516ZM25.1943 14.0802C23.9397 14.0802 23.1259 13.1147 23.1259 11.5833C23.1259 10.8508 23.3293 10.2183 23.6684 9.78549C24.0414 9.3194 24.55 9.08635 25.1943 9.08635C26.4828 9.08635 27.2627 10.0185 27.2627 11.5833C27.2627 13.148 26.4828 14.0802 25.1943 14.0802ZM35.4687 7.35516C33.7054 7.35516 32.6203 8.35393 32.5186 10.0851V5.19116L30.3145 5.52408V15.6116H32.5186V13.0481C32.6203 14.7793 33.7054 15.7781 35.4687 15.7781C37.5371 15.7781 38.7917 14.2134 38.7917 11.5833C38.7917 8.95319 37.5371 7.35516 35.4687 7.35516ZM34.4853 14.0802C33.2307 14.0802 32.4169 13.1147 32.4169 11.5833C32.4169 10.8508 32.6203 10.2183 32.9594 9.78549C33.3324 9.3194 33.841 9.08635 34.4853 9.08635C35.7738 9.08635 36.5537 10.0185 36.5537 11.5833C36.5537 13.148 35.7738 14.0802 34.4853 14.0802ZM38.7917 7.52162H41.1314L43.0303 15.6116H40.928L38.7917 7.52162ZM49.1 8.35392V7.72137H48.8287V7.5882H49.5408V7.72137H49.2695V8.35392H49.1ZM49.5747 8.35392V7.55491H49.846L49.9816 7.92113C50.0155 8.021 50.0494 8.0543 50.0494 8.08759C50.0494 8.0543 50.0833 8.021 50.1172 7.92113L50.2529 7.55491H50.5241V8.35392H50.3546V7.72137L50.1172 8.35392H49.9477L49.7442 7.72137V8.35392H49.5747Z" fill="#313535"/>
</svg>
