<svg width="36" height="15" viewBox="0 0 36 15" fill="none" xmlns="http://www.w3.org/2000/svg">
<path d="M4.48465 4.71045C4.35467 4.71045 4.16361 4.86193 4.0947 5.01341C3.88798 5.46785 3.73503 5.96731 3.53615 6.43088C3.42913 6.68031 3.47507 6.82327 3.62802 7.02829C4.03363 7.56303 4.46168 8.08014 4.79838 8.67754C5.20398 9.38202 5.15022 10.1394 4.63029 10.7277C4.24034 11.1736 3.78149 11.5745 3.28401 11.8507C2.57251 12.2431 1.79992 12.4925 1.05814 12.8223C0.958958 12.8667 0.798178 13.0182 0.78304 13.1252C0.737103 13.4458 0.890053 13.5353 0.997066 13.5888C1.84586 14.0256 2.71032 14.418 3.61288 14.8457C3.90364 14.3377 4.19441 13.865 4.44654 13.3661C5.82309 10.6742 6.12952 7.90189 4.85945 5.03166C4.80621 4.88018 4.61463 4.71957 4.48465 4.71045Z" fill="#313535"/>
<path d="M34.9886 1.22517L34.9578 1.18928C34.5449 0.708067 33.8872 0.708067 33.4737 1.18928C33.0608 1.67049 33.0608 2.43702 33.4737 2.91883L33.5045 2.95473C34.1012 3.65008 34.7668 3.2224 34.9886 2.95473C35.4015 2.47352 35.4015 1.70699 34.9886 1.22517Z" fill="#313535"/>
<path d="M30.6286 1.27015C30.5216 1.39486 30.4376 1.53782 30.3838 1.69782L31.9749 3.30206C32.0516 3.24852 32.1278 3.18647 32.1967 3.10617L32.2275 3.07027C32.855 2.33903 32.4645 1.51897 32.2275 1.23425C31.7917 0.726277 31.088 0.726277 30.6521 1.23425L30.6286 1.27015Z" fill="#313535"/>
<path d="M6.97039 0.440893C6.97039 0.440893 6.58044 1.3948 6.40453 1.87601C6.33562 2.0719 6.28237 2.30368 6.29751 2.51782C6.36642 4.21149 6.41966 5.90515 6.5272 7.58969C6.63421 9.31012 7.36086 10.567 8.7301 11.2891C9.68643 11.7971 10.696 12.0289 11.7359 12.1C13.044 12.1895 14.3517 12.2339 15.6672 12.2424C17.8471 12.26 20.0041 12.0818 22.1381 11.5829C22.7958 11.485 24.8536 10.8608 25.2054 10.6382C25.6032 10.3887 25.5802 10.4423 25.9858 10.567C26.9651 10.8523 29.5501 10.7896 30.2998 10.5311C30.7967 10.362 31.2561 10.219 31.3631 9.82662C31.8219 10.6643 32.0746 11.0926 32.8623 11.0123C33.65 10.932 33.719 10.8876 34.4915 10.6826C35.1341 10.5135 35.616 10.0316 35.807 9.301C35.9292 8.84656 35.914 8.63241 35.9448 8.29356C36.067 7.09023 35.9067 5.95808 35.3101 4.95064C35.2109 4.79003 35.1571 4.63004 34.8131 4.6562C34.7061 4.66532 34.5531 4.84357 34.4842 4.99505C34.2853 5.44098 34.1402 5.92219 33.9486 6.3675C33.8416 6.61693 33.8876 6.79518 34.0556 6.98255C34.4153 7.36582 34.7515 7.75821 35.203 8.29295C34.3386 8.40002 34.0405 8.50709 33.2987 8.57827C32.5491 8.64945 31.1877 8.63181 30.8051 7.84703C30.5221 7.26787 30.3462 6.87548 29.8874 6.48309C29.1299 5.83215 27.8985 5.83215 26.8738 6.4472C26.4071 6.72339 25.9253 7.26726 25.8412 7.9182C25.8031 8.20352 25.7191 8.44382 25.4434 8.53325C21.1984 9.80776 16.2189 10.396 12.0428 9.85278C10.9795 9.71042 9.92395 9.50541 8.91437 9.05035C8.01964 8.64032 7.61403 7.9182 7.62917 6.78605C7.65997 4.7 7.637 2.61455 7.62917 0.528497C7.62917 0.528497 7.65997 0.12759 7.3003 0.0916969C7.14631 0.0576289 6.97039 0.450019 6.97039 0.440893ZM29.9401 9.10511L26.4676 9.0607C26.4676 9.0607 26.7276 7.46498 28.135 7.40293C30.1693 7.30437 29.9401 9.10511 29.9401 9.10511Z" fill="#313535"/>
<path d="M2.22064 0.636841C2.22064 0.636841 2.25144 0.235934 1.89177 0.200041C1.75396 0.182399 1.57073 0.574181 1.57073 0.574181C1.57073 0.574181 1.18079 1.52808 1.00487 2.00929C0.935961 2.20518 0.882715 2.43697 0.897854 2.65111C0.928652 3.4803 0.958929 4.31801 0.997036 5.1472C1.04297 6.33288 1.09622 7.50945 1.14216 8.69513C1.17296 9.42638 1.20323 10.1479 1.24134 10.8883H1.81503C1.95285 10.0591 2.20498 9.24813 2.22064 8.42807C2.22064 7.32268 2.22064 2.13462 2.22064 0.636841Z" fill="#313535"/>
</svg>
